<svg width="41" height="23" viewBox="0 0 41 23" fill="none" xmlns="http://www.w3.org/2000/svg">
<path d="M5.5 16.28L0.68 11.68L5.5 7.1H7.8L2.96 11.68L7.8 16.28H5.5ZM33.7511 7.1H36.0511L40.8911 11.68L36.0511 16.28H33.7511L38.5911 11.68L33.7511 7.1Z" fill="#3CDBA2"/>
<path d="M18.6138 11.82C19.1204 11.9 19.5804 12.1067 19.9938 12.44C20.4204 12.7733 20.7538 13.1867 20.9938 13.68C21.2471 14.1733 21.3738 14.7 21.3738 15.26C21.3738 15.9667 21.1938 16.6067 20.8338 17.18C20.4738 17.74 19.9471 18.1867 19.2538 18.52C18.5738 18.84 17.7671 19 16.8338 19H11.6338V5.06H16.6338C17.5804 5.06 18.3871 5.22 19.0538 5.54C19.7204 5.84667 20.2204 6.26667 20.5538 6.8C20.8871 7.33333 21.0538 7.93333 21.0538 8.6C21.0538 9.42667 20.8271 10.1133 20.3737 10.66C19.9338 11.1933 19.3471 11.58 18.6138 11.82ZM13.4538 11.08H16.5138C17.3671 11.08 18.0271 10.88 18.4938 10.48C18.9604 10.08 19.1938 9.52667 19.1938 8.82C19.1938 8.11333 18.9604 7.56 18.4938 7.16C18.0271 6.76 17.3538 6.56 16.4738 6.56H13.4538V11.08ZM16.6738 17.5C17.5804 17.5 18.2871 17.2867 18.7938 16.86C19.3004 16.4333 19.5538 15.84 19.5538 15.08C19.5538 14.3067 19.2871 13.7 18.7538 13.26C18.2204 12.8067 17.5071 12.58 16.6138 12.58H13.4538V17.5H16.6738ZM30.6994 0.159999L25.2194 22.4H23.4194L28.8794 0.159999H30.6994Z" fill="#0045FF"/>
</svg>
