<svg width="100" height="100" viewBox="0 0 100 100" fill="none" xmlns="http://www.w3.org/2000/svg">
<rect width="100" height="100" rx="20" fill="white"/>
<g filter="url(#filter0_d_54743_10)">
<path d="M34.6364 74V27.4545H50.9091C54.1515 27.4545 56.8258 28.0152 58.9318 29.1364C61.0379 30.2424 62.6061 31.7348 63.6364 33.6136C64.6667 35.4773 65.1818 37.5455 65.1818 39.8182C65.1818 41.8182 64.8258 43.4697 64.1136 44.7727C63.4167 46.0758 62.4924 47.1061 61.3409 47.8636C60.2045 48.6212 58.9697 49.1818 57.6364 49.5455V50C59.0606 50.0909 60.4924 50.5909 61.9318 51.5C63.3712 52.4091 64.5758 53.7121 65.5455 55.4091C66.5152 57.1061 67 59.1818 67 61.6364C67 63.9697 66.4697 66.0682 65.4091 67.9318C64.3485 69.7955 62.6742 71.2727 60.3864 72.3636C58.0985 73.4545 55.1212 74 51.4545 74H34.6364ZM40.2727 69H51.4545C55.1364 69 57.75 68.2879 59.2955 66.8636C60.8561 65.4242 61.6364 63.6818 61.6364 61.6364C61.6364 60.0606 61.2348 58.6061 60.4318 57.2727C59.6288 55.9242 58.4848 54.8485 57 54.0455C55.5152 53.2273 53.7576 52.8182 51.7273 52.8182H40.2727V69ZM40.2727 47.9091H50.7273C52.4242 47.9091 53.9545 47.5758 55.3182 46.9091C56.697 46.2424 57.7879 45.303 58.5909 44.0909C59.4091 42.8788 59.8182 41.4545 59.8182 39.8182C59.8182 37.7727 59.1061 36.0379 57.6818 34.6136C56.2576 33.1742 54 32.4545 50.9091 32.4545H40.2727V47.9091Z" fill="black"/>
</g>
<defs>
<filter id="filter0_d_54743_10" x="30.6364" y="27.4546" width="40.3636" height="54.5454" filterUnits="userSpaceOnUse" color-interpolation-filters="sRGB">
<feFlood flood-opacity="0" result="BackgroundImageFix"/>
<feColorMatrix in="SourceAlpha" type="matrix" values="0 0 0 0 0 0 0 0 0 0 0 0 0 0 0 0 0 0 127 0" result="hardAlpha"/>
<feOffset dy="4"/>
<feGaussianBlur stdDeviation="2"/>
<feComposite in2="hardAlpha" operator="out"/>
<feColorMatrix type="matrix" values="0 0 0 0 0 0 0 0 0 0 0 0 0 0 0 0 0 0 0.25 0"/>
<feBlend mode="normal" in2="BackgroundImageFix" result="effect1_dropShadow_54743_10"/>
<feBlend mode="normal" in="SourceGraphic" in2="effect1_dropShadow_54743_10" result="shape"/>
</filter>
</defs>
</svg>
